<mxfile host="app.diagrams.net" modified="2021-01-12T16:38:44.689Z" agent="5.0 (Windows NT 10.0; Win64; x64) AppleWebKit/537.36 (KHTML, like Gecko) Chrome/87.0.4280.141 Safari/537.36" etag="Yz4C7jRM3grjwlFnk3M3" version="14.1.9" type="github">
  <diagram id="nbptL-ROJ0t4l48RVS8F" name="Page-1">
    <mxGraphModel dx="868" dy="450" grid="1" gridSize="10" guides="1" tooltips="1" connect="1" arrows="1" fold="1" page="1" pageScale="1" pageWidth="3300" pageHeight="4681" math="0" shadow="0">
      <root>
        <mxCell id="0" />
        <mxCell id="1" parent="0" />
        <mxCell id="OB6g8EcyLL7fK-oEM1ci-1" value="UTENTE" style="rounded=1;whiteSpace=wrap;html=1;" parent="1" vertex="1">
          <mxGeometry x="170" y="510" width="120" height="60" as="geometry" />
        </mxCell>
        <mxCell id="OB6g8EcyLL7fK-oEM1ci-2" value="VIDEO" style="rounded=1;whiteSpace=wrap;html=1;" parent="1" vertex="1">
          <mxGeometry x="460" y="510" width="120" height="60" as="geometry" />
        </mxCell>
        <mxCell id="OB6g8EcyLL7fK-oEM1ci-4" value="PLAYLIST" style="rounded=1;whiteSpace=wrap;html=1;" parent="1" vertex="1">
          <mxGeometry x="290" y="230" width="120" height="60" as="geometry" />
        </mxCell>
        <mxCell id="OB6g8EcyLL7fK-oEM1ci-5" value="CARICAM." style="rhombus;whiteSpace=wrap;html=1;" parent="1" vertex="1">
          <mxGeometry x="340" y="500" width="80" height="80" as="geometry" />
        </mxCell>
        <mxCell id="OB6g8EcyLL7fK-oEM1ci-6" value="SEL.VID" style="rhombus;whiteSpace=wrap;html=1;" parent="1" vertex="1">
          <mxGeometry x="290" y="380" width="80" height="80" as="geometry" />
        </mxCell>
        <mxCell id="OB6g8EcyLL7fK-oEM1ci-7" value="SCRIVE" style="rhombus;whiteSpace=wrap;html=1;" parent="1" vertex="1">
          <mxGeometry x="290" y="640" width="80" height="80" as="geometry" />
        </mxCell>
        <mxCell id="OB6g8EcyLL7fK-oEM1ci-10" value="" style="endArrow=none;html=1;exitX=1;exitY=0.5;exitDx=0;exitDy=0;entryX=0;entryY=0.5;entryDx=0;entryDy=0;" parent="1" source="OB6g8EcyLL7fK-oEM1ci-1" target="OB6g8EcyLL7fK-oEM1ci-5" edge="1">
          <mxGeometry width="50" height="50" relative="1" as="geometry">
            <mxPoint x="610" y="380" as="sourcePoint" />
            <mxPoint x="660" y="330" as="targetPoint" />
          </mxGeometry>
        </mxCell>
        <mxCell id="OB6g8EcyLL7fK-oEM1ci-11" value="" style="endArrow=none;html=1;exitX=1;exitY=0.5;exitDx=0;exitDy=0;entryX=0;entryY=0.5;entryDx=0;entryDy=0;" parent="1" source="OB6g8EcyLL7fK-oEM1ci-5" target="OB6g8EcyLL7fK-oEM1ci-2" edge="1">
          <mxGeometry width="50" height="50" relative="1" as="geometry">
            <mxPoint x="610" y="380" as="sourcePoint" />
            <mxPoint x="660" y="330" as="targetPoint" />
          </mxGeometry>
        </mxCell>
        <mxCell id="OB6g8EcyLL7fK-oEM1ci-12" value="" style="endArrow=none;html=1;exitX=1;exitY=1;exitDx=0;exitDy=0;entryX=0;entryY=0.5;entryDx=0;entryDy=0;" parent="1" source="OB6g8EcyLL7fK-oEM1ci-1" target="OB6g8EcyLL7fK-oEM1ci-7" edge="1">
          <mxGeometry width="50" height="50" relative="1" as="geometry">
            <mxPoint x="610" y="380" as="sourcePoint" />
            <mxPoint x="660" y="330" as="targetPoint" />
          </mxGeometry>
        </mxCell>
        <mxCell id="OB6g8EcyLL7fK-oEM1ci-13" value="" style="endArrow=none;html=1;entryX=0;entryY=1;entryDx=0;entryDy=0;exitX=1;exitY=0.5;exitDx=0;exitDy=0;" parent="1" source="injDrn-fplTvvKI1vcbC-13" target="OB6g8EcyLL7fK-oEM1ci-2" edge="1">
          <mxGeometry width="50" height="50" relative="1" as="geometry">
            <mxPoint x="490" y="655" as="sourcePoint" />
            <mxPoint x="660" y="330" as="targetPoint" />
          </mxGeometry>
        </mxCell>
        <mxCell id="OB6g8EcyLL7fK-oEM1ci-15" value="DATA INSERIM" style="ellipse;whiteSpace=wrap;html=1;" parent="1" vertex="1">
          <mxGeometry x="245" y="840" width="90" height="70" as="geometry" />
        </mxCell>
        <mxCell id="OB6g8EcyLL7fK-oEM1ci-17" value="DATANA" style="ellipse;whiteSpace=wrap;html=1;" parent="1" vertex="1">
          <mxGeometry x="30" y="420" width="90" height="70" as="geometry" />
        </mxCell>
        <mxCell id="OB6g8EcyLL7fK-oEM1ci-18" value="&lt;u&gt;USERNAME&lt;/u&gt;" style="ellipse;whiteSpace=wrap;html=1;" parent="1" vertex="1">
          <mxGeometry x="30" y="505" width="90" height="70" as="geometry" />
        </mxCell>
        <mxCell id="OB6g8EcyLL7fK-oEM1ci-19" value="COGNOME" style="ellipse;whiteSpace=wrap;html=1;" parent="1" vertex="1">
          <mxGeometry x="30" y="340" width="90" height="70" as="geometry" />
        </mxCell>
        <mxCell id="OB6g8EcyLL7fK-oEM1ci-23" value="" style="endArrow=none;html=1;exitX=1;exitY=0;exitDx=0;exitDy=0;entryX=0;entryY=0.5;entryDx=0;entryDy=0;" parent="1" source="OB6g8EcyLL7fK-oEM1ci-1" target="OB6g8EcyLL7fK-oEM1ci-6" edge="1">
          <mxGeometry width="50" height="50" relative="1" as="geometry">
            <mxPoint x="610" y="540" as="sourcePoint" />
            <mxPoint x="660" y="490" as="targetPoint" />
          </mxGeometry>
        </mxCell>
        <mxCell id="OB6g8EcyLL7fK-oEM1ci-24" value="" style="endArrow=none;html=1;entryX=0.5;entryY=1;entryDx=0;entryDy=0;exitX=0.5;exitY=0;exitDx=0;exitDy=0;" parent="1" source="OB6g8EcyLL7fK-oEM1ci-6" target="OB6g8EcyLL7fK-oEM1ci-4" edge="1">
          <mxGeometry width="50" height="50" relative="1" as="geometry">
            <mxPoint x="610" y="540" as="sourcePoint" />
            <mxPoint x="370" y="310" as="targetPoint" />
          </mxGeometry>
        </mxCell>
        <mxCell id="OB6g8EcyLL7fK-oEM1ci-25" value="NOME" style="ellipse;whiteSpace=wrap;html=1;" parent="1" vertex="1">
          <mxGeometry x="30" y="670" width="90" height="70" as="geometry" />
        </mxCell>
        <mxCell id="OB6g8EcyLL7fK-oEM1ci-26" value="PASSWORD" style="ellipse;whiteSpace=wrap;html=1;" parent="1" vertex="1">
          <mxGeometry x="30" y="590" width="90" height="70" as="geometry" />
        </mxCell>
        <mxCell id="OB6g8EcyLL7fK-oEM1ci-27" value="" style="endArrow=none;html=1;exitX=1;exitY=0.5;exitDx=0;exitDy=0;entryX=0.25;entryY=0;entryDx=0;entryDy=0;" parent="1" source="OB6g8EcyLL7fK-oEM1ci-19" target="OB6g8EcyLL7fK-oEM1ci-1" edge="1">
          <mxGeometry width="50" height="50" relative="1" as="geometry">
            <mxPoint x="560" y="690" as="sourcePoint" />
            <mxPoint x="610" y="640" as="targetPoint" />
          </mxGeometry>
        </mxCell>
        <mxCell id="OB6g8EcyLL7fK-oEM1ci-28" value="" style="endArrow=none;html=1;exitX=1;exitY=0.5;exitDx=0;exitDy=0;entryX=0;entryY=0;entryDx=0;entryDy=0;" parent="1" source="OB6g8EcyLL7fK-oEM1ci-17" target="OB6g8EcyLL7fK-oEM1ci-1" edge="1">
          <mxGeometry width="50" height="50" relative="1" as="geometry">
            <mxPoint x="560" y="690" as="sourcePoint" />
            <mxPoint x="610" y="640" as="targetPoint" />
          </mxGeometry>
        </mxCell>
        <mxCell id="OB6g8EcyLL7fK-oEM1ci-29" value="" style="endArrow=none;html=1;exitX=1;exitY=0.5;exitDx=0;exitDy=0;entryX=0;entryY=0.5;entryDx=0;entryDy=0;" parent="1" source="OB6g8EcyLL7fK-oEM1ci-18" target="OB6g8EcyLL7fK-oEM1ci-1" edge="1">
          <mxGeometry width="50" height="50" relative="1" as="geometry">
            <mxPoint x="560" y="690" as="sourcePoint" />
            <mxPoint x="610" y="640" as="targetPoint" />
          </mxGeometry>
        </mxCell>
        <mxCell id="OB6g8EcyLL7fK-oEM1ci-30" value="" style="endArrow=none;html=1;exitX=1;exitY=0.5;exitDx=0;exitDy=0;entryX=0;entryY=1;entryDx=0;entryDy=0;" parent="1" source="OB6g8EcyLL7fK-oEM1ci-26" target="OB6g8EcyLL7fK-oEM1ci-1" edge="1">
          <mxGeometry width="50" height="50" relative="1" as="geometry">
            <mxPoint x="560" y="690" as="sourcePoint" />
            <mxPoint x="610" y="640" as="targetPoint" />
          </mxGeometry>
        </mxCell>
        <mxCell id="OB6g8EcyLL7fK-oEM1ci-31" value="" style="endArrow=none;html=1;exitX=1;exitY=0.5;exitDx=0;exitDy=0;entryX=0.25;entryY=1;entryDx=0;entryDy=0;" parent="1" source="OB6g8EcyLL7fK-oEM1ci-25" target="OB6g8EcyLL7fK-oEM1ci-1" edge="1">
          <mxGeometry width="50" height="50" relative="1" as="geometry">
            <mxPoint x="560" y="690" as="sourcePoint" />
            <mxPoint x="610" y="640" as="targetPoint" />
          </mxGeometry>
        </mxCell>
        <mxCell id="OB6g8EcyLL7fK-oEM1ci-32" value="NOME PL." style="ellipse;whiteSpace=wrap;html=1;" parent="1" vertex="1">
          <mxGeometry x="310" y="90" width="90" height="70" as="geometry" />
        </mxCell>
        <mxCell id="OB6g8EcyLL7fK-oEM1ci-33" value="DATA.CAR" style="ellipse;whiteSpace=wrap;html=1;" parent="1" vertex="1">
          <mxGeometry x="630" y="620" width="90" height="70" as="geometry" />
        </mxCell>
        <mxCell id="OB6g8EcyLL7fK-oEM1ci-34" value="NOME FILE" style="ellipse;whiteSpace=wrap;html=1;" parent="1" vertex="1">
          <mxGeometry x="630" y="305" width="90" height="70" as="geometry" />
        </mxCell>
        <mxCell id="OB6g8EcyLL7fK-oEM1ci-35" value="DESC.TEST" style="ellipse;whiteSpace=wrap;html=1;" parent="1" vertex="1">
          <mxGeometry x="630" y="460" width="90" height="70" as="geometry" />
        </mxCell>
        <mxCell id="OB6g8EcyLL7fK-oEM1ci-36" value="TITOLO" style="ellipse;whiteSpace=wrap;html=1;" parent="1" vertex="1">
          <mxGeometry x="630" y="380" width="90" height="70" as="geometry" />
        </mxCell>
        <mxCell id="OB6g8EcyLL7fK-oEM1ci-37" value="DURATA" style="ellipse;whiteSpace=wrap;html=1;" parent="1" vertex="1">
          <mxGeometry x="630" y="540" width="90" height="70" as="geometry" />
        </mxCell>
        <mxCell id="OB6g8EcyLL7fK-oEM1ci-38" value="" style="endArrow=none;html=1;exitX=0.5;exitY=1;exitDx=0;exitDy=0;entryX=0.5;entryY=0;entryDx=0;entryDy=0;" parent="1" source="OB6g8EcyLL7fK-oEM1ci-32" target="OB6g8EcyLL7fK-oEM1ci-4" edge="1">
          <mxGeometry width="50" height="50" relative="1" as="geometry">
            <mxPoint x="560" y="380" as="sourcePoint" />
            <mxPoint x="610" y="330" as="targetPoint" />
          </mxGeometry>
        </mxCell>
        <mxCell id="OB6g8EcyLL7fK-oEM1ci-40" value="" style="endArrow=none;html=1;exitX=0.75;exitY=1;exitDx=0;exitDy=0;entryX=0;entryY=0.5;entryDx=0;entryDy=0;" parent="1" source="OB6g8EcyLL7fK-oEM1ci-2" target="OB6g8EcyLL7fK-oEM1ci-33" edge="1">
          <mxGeometry width="50" height="50" relative="1" as="geometry">
            <mxPoint x="560" y="670" as="sourcePoint" />
            <mxPoint x="610" y="620" as="targetPoint" />
          </mxGeometry>
        </mxCell>
        <mxCell id="OB6g8EcyLL7fK-oEM1ci-41" value="" style="endArrow=none;html=1;entryX=1;entryY=1;entryDx=0;entryDy=0;exitX=0;exitY=0.5;exitDx=0;exitDy=0;" parent="1" source="OB6g8EcyLL7fK-oEM1ci-37" target="OB6g8EcyLL7fK-oEM1ci-2" edge="1">
          <mxGeometry width="50" height="50" relative="1" as="geometry">
            <mxPoint x="560" y="670" as="sourcePoint" />
            <mxPoint x="610" y="620" as="targetPoint" />
          </mxGeometry>
        </mxCell>
        <mxCell id="OB6g8EcyLL7fK-oEM1ci-42" value="" style="endArrow=none;html=1;entryX=1;entryY=0.5;entryDx=0;entryDy=0;exitX=0;exitY=0.5;exitDx=0;exitDy=0;" parent="1" source="OB6g8EcyLL7fK-oEM1ci-35" target="OB6g8EcyLL7fK-oEM1ci-2" edge="1">
          <mxGeometry width="50" height="50" relative="1" as="geometry">
            <mxPoint x="560" y="670" as="sourcePoint" />
            <mxPoint x="610" y="620" as="targetPoint" />
          </mxGeometry>
        </mxCell>
        <mxCell id="OB6g8EcyLL7fK-oEM1ci-43" value="" style="endArrow=none;html=1;entryX=1;entryY=0;entryDx=0;entryDy=0;exitX=0;exitY=1;exitDx=0;exitDy=0;" parent="1" source="OB6g8EcyLL7fK-oEM1ci-36" target="OB6g8EcyLL7fK-oEM1ci-2" edge="1">
          <mxGeometry width="50" height="50" relative="1" as="geometry">
            <mxPoint x="560" y="670" as="sourcePoint" />
            <mxPoint x="610" y="620" as="targetPoint" />
          </mxGeometry>
        </mxCell>
        <mxCell id="OB6g8EcyLL7fK-oEM1ci-44" value="" style="endArrow=none;html=1;entryX=0;entryY=1;entryDx=0;entryDy=0;exitX=0.75;exitY=0;exitDx=0;exitDy=0;" parent="1" source="OB6g8EcyLL7fK-oEM1ci-2" target="OB6g8EcyLL7fK-oEM1ci-34" edge="1">
          <mxGeometry width="50" height="50" relative="1" as="geometry">
            <mxPoint x="560" y="670" as="sourcePoint" />
            <mxPoint x="610" y="620" as="targetPoint" />
          </mxGeometry>
        </mxCell>
        <mxCell id="OB6g8EcyLL7fK-oEM1ci-45" value="(1,1)" style="text;html=1;strokeColor=none;fillColor=none;align=center;verticalAlign=middle;whiteSpace=wrap;rounded=0;" parent="1" vertex="1">
          <mxGeometry x="420" y="520" width="40" height="20" as="geometry" />
        </mxCell>
        <mxCell id="OB6g8EcyLL7fK-oEM1ci-50" value="(0,N)" style="text;html=1;strokeColor=none;fillColor=none;align=center;verticalAlign=middle;whiteSpace=wrap;rounded=0;" parent="1" vertex="1">
          <mxGeometry x="295" y="520" width="40" height="20" as="geometry" />
        </mxCell>
        <mxCell id="OB6g8EcyLL7fK-oEM1ci-54" value="(0,N)" style="text;html=1;strokeColor=none;fillColor=none;align=center;verticalAlign=middle;whiteSpace=wrap;rounded=0;" parent="1" vertex="1">
          <mxGeometry x="420" y="610" width="40" height="20" as="geometry" />
        </mxCell>
        <mxCell id="OB6g8EcyLL7fK-oEM1ci-55" value="(0,N)" style="text;html=1;strokeColor=none;fillColor=none;align=center;verticalAlign=middle;whiteSpace=wrap;rounded=0;" parent="1" vertex="1">
          <mxGeometry x="295" y="610" width="40" height="20" as="geometry" />
        </mxCell>
        <mxCell id="OB6g8EcyLL7fK-oEM1ci-57" value="(1,1)" style="text;html=1;strokeColor=none;fillColor=none;align=center;verticalAlign=middle;whiteSpace=wrap;rounded=0;" parent="1" vertex="1">
          <mxGeometry x="290" y="340" width="40" height="20" as="geometry" />
        </mxCell>
        <mxCell id="OB6g8EcyLL7fK-oEM1ci-58" value="(0,N)" style="text;html=1;strokeColor=none;fillColor=none;align=center;verticalAlign=middle;whiteSpace=wrap;rounded=0;" parent="1" vertex="1">
          <mxGeometry x="250" y="460" width="40" height="20" as="geometry" />
        </mxCell>
        <mxCell id="OB6g8EcyLL7fK-oEM1ci-59" value="(0,N)" style="text;html=1;strokeColor=none;fillColor=none;align=center;verticalAlign=middle;whiteSpace=wrap;rounded=0;" parent="1" vertex="1">
          <mxGeometry x="470" y="470" width="40" height="20" as="geometry" />
        </mxCell>
        <mxCell id="OB6g8EcyLL7fK-oEM1ci-60" value="&lt;u&gt;ID.PLAYLIST&lt;/u&gt;" style="ellipse;whiteSpace=wrap;html=1;" parent="1" vertex="1">
          <mxGeometry x="195" y="90" width="100" height="70" as="geometry" />
        </mxCell>
        <mxCell id="OB6g8EcyLL7fK-oEM1ci-61" value="" style="endArrow=none;html=1;entryX=0.5;entryY=1;entryDx=0;entryDy=0;exitX=0;exitY=0;exitDx=0;exitDy=0;" parent="1" source="OB6g8EcyLL7fK-oEM1ci-4" target="OB6g8EcyLL7fK-oEM1ci-60" edge="1">
          <mxGeometry width="50" height="50" relative="1" as="geometry">
            <mxPoint x="560" y="340" as="sourcePoint" />
            <mxPoint x="610" y="290" as="targetPoint" />
          </mxGeometry>
        </mxCell>
        <mxCell id="injDrn-fplTvvKI1vcbC-1" value="TESTO" style="ellipse;whiteSpace=wrap;html=1;" parent="1" vertex="1">
          <mxGeometry x="350" y="840" width="90" height="70" as="geometry" />
        </mxCell>
        <mxCell id="injDrn-fplTvvKI1vcbC-2" value="" style="endArrow=none;html=1;exitX=0.5;exitY=0;exitDx=0;exitDy=0;" parent="1" source="injDrn-fplTvvKI1vcbC-12" target="OB6g8EcyLL7fK-oEM1ci-7" edge="1">
          <mxGeometry width="50" height="50" relative="1" as="geometry">
            <mxPoint x="400" y="710" as="sourcePoint" />
            <mxPoint x="470" y="710" as="targetPoint" />
          </mxGeometry>
        </mxCell>
        <mxCell id="injDrn-fplTvvKI1vcbC-3" value="ELENCOVIDEO" style="ellipse;whiteSpace=wrap;html=1;" parent="1" vertex="1">
          <mxGeometry x="420" y="90" width="90" height="70" as="geometry" />
        </mxCell>
        <mxCell id="injDrn-fplTvvKI1vcbC-4" value="" style="endArrow=none;html=1;entryX=0.389;entryY=1.014;entryDx=0;entryDy=0;entryPerimeter=0;exitX=1;exitY=0;exitDx=0;exitDy=0;" parent="1" source="OB6g8EcyLL7fK-oEM1ci-4" target="injDrn-fplTvvKI1vcbC-3" edge="1">
          <mxGeometry width="50" height="50" relative="1" as="geometry">
            <mxPoint x="420" y="260" as="sourcePoint" />
            <mxPoint x="470" y="210" as="targetPoint" />
          </mxGeometry>
        </mxCell>
        <mxCell id="injDrn-fplTvvKI1vcbC-6" value="SCELTA" style="rhombus;whiteSpace=wrap;html=1;" parent="1" vertex="1">
          <mxGeometry x="380" y="380" width="80" height="80" as="geometry" />
        </mxCell>
        <mxCell id="injDrn-fplTvvKI1vcbC-7" value="" style="endArrow=none;html=1;exitX=0;exitY=0;exitDx=0;exitDy=0;entryX=1;entryY=0.5;entryDx=0;entryDy=0;" parent="1" source="OB6g8EcyLL7fK-oEM1ci-2" target="injDrn-fplTvvKI1vcbC-6" edge="1">
          <mxGeometry width="50" height="50" relative="1" as="geometry">
            <mxPoint x="420" y="460" as="sourcePoint" />
            <mxPoint x="470" y="410" as="targetPoint" />
          </mxGeometry>
        </mxCell>
        <mxCell id="injDrn-fplTvvKI1vcbC-8" value="" style="endArrow=none;html=1;entryX=0.75;entryY=1;entryDx=0;entryDy=0;exitX=0.5;exitY=0;exitDx=0;exitDy=0;" parent="1" source="injDrn-fplTvvKI1vcbC-6" target="OB6g8EcyLL7fK-oEM1ci-4" edge="1">
          <mxGeometry width="50" height="50" relative="1" as="geometry">
            <mxPoint x="420" y="460" as="sourcePoint" />
            <mxPoint x="470" y="410" as="targetPoint" />
          </mxGeometry>
        </mxCell>
        <mxCell id="injDrn-fplTvvKI1vcbC-9" value="(1,N)" style="text;html=1;strokeColor=none;fillColor=none;align=center;verticalAlign=middle;whiteSpace=wrap;rounded=0;" parent="1" vertex="1">
          <mxGeometry x="400" y="330" width="40" height="20" as="geometry" />
        </mxCell>
        <mxCell id="injDrn-fplTvvKI1vcbC-10" value="&lt;u&gt;ID.VIDEO&lt;/u&gt;" style="ellipse;whiteSpace=wrap;html=1;" parent="1" vertex="1">
          <mxGeometry x="630" y="700" width="90" height="70" as="geometry" />
        </mxCell>
        <mxCell id="injDrn-fplTvvKI1vcbC-11" value="" style="endArrow=none;html=1;entryX=0.5;entryY=1;entryDx=0;entryDy=0;exitX=0;exitY=0;exitDx=0;exitDy=0;" parent="1" source="injDrn-fplTvvKI1vcbC-10" target="OB6g8EcyLL7fK-oEM1ci-2" edge="1">
          <mxGeometry width="50" height="50" relative="1" as="geometry">
            <mxPoint x="420" y="660" as="sourcePoint" />
            <mxPoint x="470" y="610" as="targetPoint" />
          </mxGeometry>
        </mxCell>
        <mxCell id="injDrn-fplTvvKI1vcbC-12" value="COMMENTO" style="rounded=1;whiteSpace=wrap;html=1;" parent="1" vertex="1">
          <mxGeometry x="335" y="760" width="120" height="60" as="geometry" />
        </mxCell>
        <mxCell id="injDrn-fplTvvKI1vcbC-13" value="SEZIONE" style="rhombus;whiteSpace=wrap;html=1;" parent="1" vertex="1">
          <mxGeometry x="380" y="640" width="80" height="80" as="geometry" />
        </mxCell>
        <mxCell id="injDrn-fplTvvKI1vcbC-14" value="&lt;u&gt;ID.COMMENTO&lt;/u&gt;" style="ellipse;whiteSpace=wrap;html=1;" parent="1" vertex="1">
          <mxGeometry x="455" y="840" width="90" height="70" as="geometry" />
        </mxCell>
        <mxCell id="injDrn-fplTvvKI1vcbC-15" value="" style="endArrow=none;html=1;entryX=0.5;entryY=1;entryDx=0;entryDy=0;exitX=0.5;exitY=0;exitDx=0;exitDy=0;" parent="1" target="injDrn-fplTvvKI1vcbC-13" edge="1" source="injDrn-fplTvvKI1vcbC-12">
          <mxGeometry width="50" height="50" relative="1" as="geometry">
            <mxPoint x="420" y="760" as="sourcePoint" />
            <mxPoint x="470" y="710" as="targetPoint" />
          </mxGeometry>
        </mxCell>
        <mxCell id="injDrn-fplTvvKI1vcbC-16" value="(1,1)" style="text;html=1;strokeColor=none;fillColor=none;align=center;verticalAlign=middle;whiteSpace=wrap;rounded=0;" parent="1" vertex="1">
          <mxGeometry x="330" y="720" width="40" height="20" as="geometry" />
        </mxCell>
        <mxCell id="injDrn-fplTvvKI1vcbC-17" value="(1,1)" style="text;html=1;strokeColor=none;fillColor=none;align=center;verticalAlign=middle;whiteSpace=wrap;rounded=0;" parent="1" vertex="1">
          <mxGeometry x="420" y="725" width="40" height="20" as="geometry" />
        </mxCell>
        <mxCell id="injDrn-fplTvvKI1vcbC-18" value="" style="endArrow=none;html=1;exitX=1;exitY=0;exitDx=0;exitDy=0;entryX=0;entryY=1;entryDx=0;entryDy=0;" parent="1" source="OB6g8EcyLL7fK-oEM1ci-15" target="injDrn-fplTvvKI1vcbC-12" edge="1">
          <mxGeometry width="50" height="50" relative="1" as="geometry">
            <mxPoint x="420" y="760" as="sourcePoint" />
            <mxPoint x="470" y="710" as="targetPoint" />
          </mxGeometry>
        </mxCell>
        <mxCell id="injDrn-fplTvvKI1vcbC-19" value="" style="endArrow=none;html=1;exitX=0.5;exitY=0;exitDx=0;exitDy=0;entryX=0.5;entryY=1;entryDx=0;entryDy=0;" parent="1" source="injDrn-fplTvvKI1vcbC-1" target="injDrn-fplTvvKI1vcbC-12" edge="1">
          <mxGeometry width="50" height="50" relative="1" as="geometry">
            <mxPoint x="420" y="760" as="sourcePoint" />
            <mxPoint x="470" y="710" as="targetPoint" />
          </mxGeometry>
        </mxCell>
        <mxCell id="injDrn-fplTvvKI1vcbC-20" value="" style="endArrow=none;html=1;exitX=0;exitY=0;exitDx=0;exitDy=0;entryX=1;entryY=1;entryDx=0;entryDy=0;" parent="1" source="injDrn-fplTvvKI1vcbC-14" target="injDrn-fplTvvKI1vcbC-12" edge="1">
          <mxGeometry width="50" height="50" relative="1" as="geometry">
            <mxPoint x="420" y="760" as="sourcePoint" />
            <mxPoint x="470" y="710" as="targetPoint" />
          </mxGeometry>
        </mxCell>
      </root>
    </mxGraphModel>
  </diagram>
</mxfile>
